<svg xmlns="http://www.w3.org/2000/svg" width="690" height="1094" viewBox="0 0 690 1094" font-family="system-ui, -apple-system, Segoe UI, sans-serif">
<rect width="690" height="1094" fill="#0b1020"/>
<text x="28" y="42" fill="#7fe3ff" font-size="15" font-weight="700" letter-spacing="1.2">HARMONIC COLOR CODE — DERIVED, 64 CARRIERS</text>
<text x="28" y="58" fill="#8fa3c0" font-size="10.5">hue = pitch class of harmonic k · lightness = octave · chroma = max in gamut · f0 = C4 261.63 Hz</text>
<g><rect x="28" y="72" width="74" height="74" rx="9" fill="#e7007a"/><text x="36" y="91" fill="#ffffff" font-size="13" font-weight="700">H1</text><text x="36" y="106" fill="#ffffff" font-size="8.5" opacity="0.85">262 Hz</text><text x="36" y="119" fill="#ffffff" font-size="8.5" opacity="0.85">oct 0 · 0°</text><text x="36" y="132" fill="#ffffff" font-size="8.5" opacity="0.7">+0¢</text></g>
<g><rect x="108" y="72" width="74" height="74" rx="9" fill="#fd0087"/><text x="116" y="91" fill="#ffffff" font-size="13" font-weight="700">H2</text><text x="116" y="106" fill="#ffffff" font-size="8.5" opacity="0.85">523 Hz</text><text x="116" y="119" fill="#ffffff" font-size="8.5" opacity="0.85">oct 1 · 0°</text><text x="116" y="132" fill="#ffffff" font-size="8.5" opacity="0.7">+0¢</text></g>
<g><rect x="188" y="72" width="74" height="74" rx="9" fill="#009fb3"/><text x="196" y="91" fill="#ffffff" font-size="13" font-weight="700">H3</text><text x="196" y="106" fill="#ffffff" font-size="8.5" opacity="0.85">785 Hz</text><text x="196" y="119" fill="#ffffff" font-size="8.5" opacity="0.85">oct 1 · 211°</text><text x="196" y="132" fill="#ffffff" font-size="8.5" opacity="0.7">+2¢</text></g>
<g><rect x="268" y="72" width="74" height="74" rx="9" fill="#ff4b95"/><text x="276" y="91" fill="#ffffff" font-size="13" font-weight="700">H4</text><text x="276" y="106" fill="#ffffff" font-size="8.5" opacity="0.85">1047 Hz</text><text x="276" y="119" fill="#ffffff" font-size="8.5" opacity="0.85">oct 2 · 0°</text><text x="276" y="132" fill="#ffffff" font-size="8.5" opacity="0.7">+0¢</text></g>
<g><rect x="348" y="72" width="74" height="74" rx="9" fill="#96a500"/><text x="356" y="91" fill="#ffffff" font-size="13" font-weight="700">H5</text><text x="356" y="106" fill="#ffffff" font-size="8.5" opacity="0.85">1308 Hz</text><text x="356" y="119" fill="#ffffff" font-size="8.5" opacity="0.85">oct 2 · 116°</text><text x="356" y="132" fill="#ffffff" font-size="8.5" opacity="0.7">-14¢</text></g>
<g><rect x="428" y="72" width="74" height="74" rx="9" fill="#00adc3"/><text x="436" y="91" fill="#ffffff" font-size="13" font-weight="700">H6</text><text x="436" y="106" fill="#ffffff" font-size="8.5" opacity="0.85">1570 Hz</text><text x="436" y="119" fill="#ffffff" font-size="8.5" opacity="0.85">oct 2 · 211°</text><text x="436" y="132" fill="#ffffff" font-size="8.5" opacity="0.7">+2¢</text></g>
<g><rect x="508" y="72" width="74" height="74" rx="9" fill="#9c82ff"/><text x="516" y="91" fill="#ffffff" font-size="13" font-weight="700">H7</text><text x="516" y="106" fill="#ffffff" font-size="8.5" opacity="0.85">1831 Hz</text><text x="516" y="119" fill="#ffffff" font-size="8.5" opacity="0.85">oct 2 · 291°</text><text x="516" y="132" fill="#ffffff" font-size="8.5" opacity="0.7">-31¢</text></g>
<g><rect x="588" y="72" width="74" height="74" rx="9" fill="#ff6fa3"/><text x="596" y="91" fill="#0b1020" font-size="13" font-weight="700">H8</text><text x="596" y="106" fill="#0b1020" font-size="8.5" opacity="0.85">2093 Hz</text><text x="596" y="119" fill="#0b1020" font-size="8.5" opacity="0.85">oct 3 · 0°</text><text x="596" y="132" fill="#0b1020" font-size="8.5" opacity="0.7">+0¢</text></g>
<g><rect x="28" y="152" width="74" height="74" rx="9" fill="#f28a00"/><text x="36" y="171" fill="#0b1020" font-size="13" font-weight="700">H9</text><text x="36" y="186" fill="#0b1020" font-size="8.5" opacity="0.85">2355 Hz</text><text x="36" y="199" fill="#0b1020" font-size="8.5" opacity="0.85">oct 3 · 61°</text><text x="36" y="212" fill="#0b1020" font-size="8.5" opacity="0.7">+4¢</text></g>
<g><rect x="108" y="152" width="74" height="74" rx="9" fill="#a4b300"/><text x="116" y="171" fill="#0b1020" font-size="13" font-weight="700">H10</text><text x="116" y="186" fill="#0b1020" font-size="8.5" opacity="0.85">2616 Hz</text><text x="116" y="199" fill="#0b1020" font-size="8.5" opacity="0.85">oct 3 · 116°</text><text x="116" y="212" fill="#0b1020" font-size="8.5" opacity="0.7">-14¢</text></g>
<g><rect x="188" y="152" width="74" height="74" rx="9" fill="#00c590"/><text x="196" y="171" fill="#0b1020" font-size="13" font-weight="700">H11</text><text x="196" y="186" fill="#0b1020" font-size="8.5" opacity="0.85">2878 Hz</text><text x="196" y="199" fill="#0b1020" font-size="8.5" opacity="0.85">oct 3 · 165°</text><text x="196" y="212" fill="#0b1020" font-size="8.5" opacity="0.7">-49¢</text></g>
<g><rect x="268" y="152" width="74" height="74" rx="9" fill="#00bcd4"/><text x="276" y="171" fill="#0b1020" font-size="13" font-weight="700">H12</text><text x="276" y="186" fill="#0b1020" font-size="8.5" opacity="0.85">3140 Hz</text><text x="276" y="199" fill="#0b1020" font-size="8.5" opacity="0.85">oct 3 · 211°</text><text x="276" y="212" fill="#0b1020" font-size="8.5" opacity="0.7">+2¢</text></g>
<g><rect x="348" y="152" width="74" height="74" rx="9" fill="#5facff"/><text x="356" y="171" fill="#0b1020" font-size="13" font-weight="700">H13</text><text x="356" y="186" fill="#0b1020" font-size="8.5" opacity="0.85">3401 Hz</text><text x="356" y="199" fill="#0b1020" font-size="8.5" opacity="0.85">oct 3 · 252°</text><text x="356" y="212" fill="#0b1020" font-size="8.5" opacity="0.7">+41¢</text></g>
<g><rect x="428" y="152" width="74" height="74" rx="9" fill="#a895ff"/><text x="436" y="171" fill="#0b1020" font-size="13" font-weight="700">H14</text><text x="436" y="186" fill="#0b1020" font-size="8.5" opacity="0.85">3663 Hz</text><text x="436" y="199" fill="#0b1020" font-size="8.5" opacity="0.85">oct 3 · 291°</text><text x="436" y="212" fill="#0b1020" font-size="8.5" opacity="0.7">-31¢</text></g>
<g><rect x="508" y="152" width="74" height="74" rx="9" fill="#f952ff"/><text x="516" y="171" fill="#0b1020" font-size="13" font-weight="700">H15</text><text x="516" y="186" fill="#0b1020" font-size="8.5" opacity="0.85">3924 Hz</text><text x="516" y="199" fill="#0b1020" font-size="8.5" opacity="0.85">oct 3 · 326°</text><text x="516" y="212" fill="#0b1020" font-size="8.5" opacity="0.7">-12¢</text></g>
<g><rect x="588" y="152" width="74" height="74" rx="9" fill="#ff8bb1"/><text x="596" y="171" fill="#0b1020" font-size="13" font-weight="700">H16</text><text x="596" y="186" fill="#0b1020" font-size="8.5" opacity="0.85">4186 Hz</text><text x="596" y="199" fill="#0b1020" font-size="8.5" opacity="0.85">oct 4 · 0°</text><text x="596" y="212" fill="#0b1020" font-size="8.5" opacity="0.7">+0¢</text></g>
<g><rect x="28" y="232" width="74" height="74" rx="9" fill="#ff937f"/><text x="36" y="251" fill="#0b1020" font-size="13" font-weight="700">H17</text><text x="36" y="266" fill="#0b1020" font-size="8.5" opacity="0.85">4448 Hz</text><text x="36" y="279" fill="#0b1020" font-size="8.5" opacity="0.85">oct 4 · 31°</text><text x="36" y="292" fill="#0b1020" font-size="8.5" opacity="0.7">+5¢</text></g>
<g><rect x="108" y="232" width="74" height="74" rx="9" fill="#ff992d"/><text x="116" y="251" fill="#0b1020" font-size="13" font-weight="700">H18</text><text x="116" y="266" fill="#0b1020" font-size="8.5" opacity="0.85">4709 Hz</text><text x="116" y="279" fill="#0b1020" font-size="8.5" opacity="0.85">oct 4 · 61°</text><text x="116" y="292" fill="#0b1020" font-size="8.5" opacity="0.7">+4¢</text></g>
<g><rect x="188" y="232" width="74" height="74" rx="9" fill="#ddaf00"/><text x="196" y="251" fill="#0b1020" font-size="13" font-weight="700">H19</text><text x="196" y="266" fill="#0b1020" font-size="8.5" opacity="0.85">4971 Hz</text><text x="196" y="279" fill="#0b1020" font-size="8.5" opacity="0.85">oct 4 · 89°</text><text x="196" y="292" fill="#0b1020" font-size="8.5" opacity="0.7">-2¢</text></g>
<g><rect x="268" y="232" width="74" height="74" rx="9" fill="#b1c200"/><text x="276" y="251" fill="#0b1020" font-size="13" font-weight="700">H20</text><text x="276" y="266" fill="#0b1020" font-size="8.5" opacity="0.85">5233 Hz</text><text x="276" y="279" fill="#0b1020" font-size="8.5" opacity="0.85">oct 4 · 116°</text><text x="276" y="292" fill="#0b1020" font-size="8.5" opacity="0.7">-14¢</text></g>
<g><rect x="348" y="232" width="74" height="74" rx="9" fill="#30da00"/><text x="356" y="251" fill="#0b1020" font-size="13" font-weight="700">H21</text><text x="356" y="266" fill="#0b1020" font-size="8.5" opacity="0.85">5494 Hz</text><text x="356" y="279" fill="#0b1020" font-size="8.5" opacity="0.85">oct 4 · 141°</text><text x="356" y="292" fill="#0b1020" font-size="8.5" opacity="0.7">-29¢</text></g>
<g><rect x="428" y="232" width="74" height="74" rx="9" fill="#00d59c"/><text x="436" y="251" fill="#0b1020" font-size="13" font-weight="700">H22</text><text x="436" y="266" fill="#0b1020" font-size="8.5" opacity="0.85">5756 Hz</text><text x="436" y="279" fill="#0b1020" font-size="8.5" opacity="0.85">oct 4 · 165°</text><text x="436" y="292" fill="#0b1020" font-size="8.5" opacity="0.7">-49¢</text></g>
<g><rect x="508" y="232" width="74" height="74" rx="9" fill="#00d0c6"/><text x="516" y="251" fill="#0b1020" font-size="13" font-weight="700">H23</text><text x="516" y="266" fill="#0b1020" font-size="8.5" opacity="0.85">6017 Hz</text><text x="516" y="279" fill="#0b1020" font-size="8.5" opacity="0.85">oct 4 · 188°</text><text x="516" y="292" fill="#0b1020" font-size="8.5" opacity="0.7">+28¢</text></g>
<g><rect x="588" y="232" width="74" height="74" rx="9" fill="#00cbe5"/><text x="596" y="251" fill="#0b1020" font-size="13" font-weight="700">H24</text><text x="596" y="266" fill="#0b1020" font-size="8.5" opacity="0.85">6279 Hz</text><text x="596" y="279" fill="#0b1020" font-size="8.5" opacity="0.85">oct 4 · 211°</text><text x="596" y="292" fill="#0b1020" font-size="8.5" opacity="0.7">+2¢</text></g>
<g><rect x="28" y="312" width="74" height="74" rx="9" fill="#3bc4ff"/><text x="36" y="331" fill="#0b1020" font-size="13" font-weight="700">H25</text><text x="36" y="346" fill="#0b1020" font-size="8.5" opacity="0.85">6541 Hz</text><text x="36" y="359" fill="#0b1020" font-size="8.5" opacity="0.85">oct 4 · 232°</text><text x="36" y="372" fill="#0b1020" font-size="8.5" opacity="0.7">-27¢</text></g>
<g><rect x="108" y="312" width="74" height="74" rx="9" fill="#7cbaff"/><text x="116" y="331" fill="#0b1020" font-size="13" font-weight="700">H26</text><text x="116" y="346" fill="#0b1020" font-size="8.5" opacity="0.85">6802 Hz</text><text x="116" y="359" fill="#0b1020" font-size="8.5" opacity="0.85">oct 4 · 252°</text><text x="116" y="372" fill="#0b1020" font-size="8.5" opacity="0.7">+41¢</text></g>
<g><rect x="188" y="312" width="74" height="74" rx="9" fill="#9bb1ff"/><text x="196" y="331" fill="#0b1020" font-size="13" font-weight="700">H27</text><text x="196" y="346" fill="#0b1020" font-size="8.5" opacity="0.85">7064 Hz</text><text x="196" y="359" fill="#0b1020" font-size="8.5" opacity="0.85">oct 4 · 272°</text><text x="196" y="372" fill="#0b1020" font-size="8.5" opacity="0.7">+6¢</text></g>
<g><rect x="268" y="312" width="74" height="74" rx="9" fill="#b5a7ff"/><text x="276" y="331" fill="#0b1020" font-size="13" font-weight="700">H28</text><text x="276" y="346" fill="#0b1020" font-size="8.5" opacity="0.85">7326 Hz</text><text x="276" y="359" fill="#0b1020" font-size="8.5" opacity="0.85">oct 4 · 291°</text><text x="276" y="372" fill="#0b1020" font-size="8.5" opacity="0.7">-31¢</text></g>
<g><rect x="348" y="312" width="74" height="74" rx="9" fill="#d298ff"/><text x="356" y="331" fill="#0b1020" font-size="13" font-weight="700">H29</text><text x="356" y="346" fill="#0b1020" font-size="8.5" opacity="0.85">7587 Hz</text><text x="356" y="359" fill="#0b1020" font-size="8.5" opacity="0.85">oct 4 · 309°</text><text x="356" y="372" fill="#0b1020" font-size="8.5" opacity="0.7">+30¢</text></g>
<g><rect x="428" y="312" width="74" height="74" rx="9" fill="#fc78ff"/><text x="436" y="331" fill="#0b1020" font-size="13" font-weight="700">H30</text><text x="436" y="346" fill="#0b1020" font-size="8.5" opacity="0.85">7849 Hz</text><text x="436" y="359" fill="#0b1020" font-size="8.5" opacity="0.85">oct 4 · 326°</text><text x="436" y="372" fill="#0b1020" font-size="8.5" opacity="0.7">-12¢</text></g>
<g><rect x="508" y="312" width="74" height="74" rx="9" fill="#ff84d1"/><text x="516" y="331" fill="#0b1020" font-size="13" font-weight="700">H31</text><text x="516" y="346" fill="#0b1020" font-size="8.5" opacity="0.85">8110 Hz</text><text x="516" y="359" fill="#0b1020" font-size="8.5" opacity="0.85">oct 4 · 344°</text><text x="516" y="372" fill="#0b1020" font-size="8.5" opacity="0.7">+45¢</text></g>
<g><rect x="588" y="312" width="74" height="74" rx="9" fill="#ffa4c0"/><text x="596" y="331" fill="#0b1020" font-size="13" font-weight="700">H32</text><text x="596" y="346" fill="#0b1020" font-size="8.5" opacity="0.85">8372 Hz</text><text x="596" y="359" fill="#0b1020" font-size="8.5" opacity="0.85">oct 5 · 0°</text><text x="596" y="372" fill="#0b1020" font-size="8.5" opacity="0.7">+0¢</text></g>
<g><rect x="28" y="392" width="74" height="74" rx="9" fill="#ffa7ac"/><text x="36" y="411" fill="#0b1020" font-size="13" font-weight="700">H33</text><text x="36" y="426" fill="#0b1020" font-size="8.5" opacity="0.85">8634 Hz</text><text x="36" y="439" fill="#0b1020" font-size="8.5" opacity="0.85">oct 5 · 16°</text><text x="36" y="452" fill="#0b1020" font-size="8.5" opacity="0.7">-47¢</text></g>
<g><rect x="108" y="392" width="74" height="74" rx="9" fill="#ffaa99"/><text x="116" y="411" fill="#0b1020" font-size="13" font-weight="700">H34</text><text x="116" y="426" fill="#0b1020" font-size="8.5" opacity="0.85">8895 Hz</text><text x="116" y="439" fill="#0b1020" font-size="8.5" opacity="0.85">oct 5 · 31°</text><text x="116" y="452" fill="#0b1020" font-size="8.5" opacity="0.7">+5¢</text></g>
<g><rect x="188" y="392" width="74" height="74" rx="9" fill="#ffac84"/><text x="196" y="411" fill="#0b1020" font-size="13" font-weight="700">H35</text><text x="196" y="426" fill="#0b1020" font-size="8.5" opacity="0.85">9157 Hz</text><text x="196" y="439" fill="#0b1020" font-size="8.5" opacity="0.85">oct 5 · 47°</text><text x="196" y="452" fill="#0b1020" font-size="8.5" opacity="0.7">-45¢</text></g>
<g><rect x="268" y="392" width="74" height="74" rx="9" fill="#ffaf67"/><text x="276" y="411" fill="#0b1020" font-size="13" font-weight="700">H36</text><text x="276" y="426" fill="#0b1020" font-size="8.5" opacity="0.85">9419 Hz</text><text x="276" y="439" fill="#0b1020" font-size="8.5" opacity="0.85">oct 5 · 61°</text><text x="276" y="452" fill="#0b1020" font-size="8.5" opacity="0.7">+4¢</text></g>
<g><rect x="348" y="392" width="74" height="74" rx="9" fill="#ffb228"/><text x="356" y="411" fill="#0b1020" font-size="13" font-weight="700">H37</text><text x="356" y="426" fill="#0b1020" font-size="8.5" opacity="0.85">9680 Hz</text><text x="356" y="439" fill="#0b1020" font-size="8.5" opacity="0.85">oct 5 · 75°</text><text x="356" y="452" fill="#0b1020" font-size="8.5" opacity="0.7">-49¢</text></g>
<g><rect x="428" y="392" width="74" height="74" rx="9" fill="#eebc00"/><text x="436" y="411" fill="#0b1020" font-size="13" font-weight="700">H38</text><text x="436" y="426" fill="#0b1020" font-size="8.5" opacity="0.85">9942 Hz</text><text x="436" y="439" fill="#0b1020" font-size="8.5" opacity="0.85">oct 5 · 89°</text><text x="436" y="452" fill="#0b1020" font-size="8.5" opacity="0.7">-2¢</text></g>
<g><rect x="508" y="392" width="74" height="74" rx="9" fill="#d9c600"/><text x="516" y="411" fill="#0b1020" font-size="13" font-weight="700">H39</text><text x="516" y="426" fill="#0b1020" font-size="8.5" opacity="0.85">10203 Hz</text><text x="516" y="439" fill="#0b1020" font-size="8.5" opacity="0.85">oct 5 · 103°</text><text x="516" y="452" fill="#0b1020" font-size="8.5" opacity="0.7">+42¢</text></g>
<g><rect x="588" y="392" width="74" height="74" rx="9" fill="#bed000"/><text x="596" y="411" fill="#0b1020" font-size="13" font-weight="700">H40</text><text x="596" y="426" fill="#0b1020" font-size="8.5" opacity="0.85">10465 Hz</text><text x="596" y="439" fill="#0b1020" font-size="8.5" opacity="0.85">oct 5 · 116°</text><text x="596" y="452" fill="#0b1020" font-size="8.5" opacity="0.7">-14¢</text></g>
<g><rect x="28" y="472" width="74" height="74" rx="9" fill="#97dc00"/><text x="36" y="491" fill="#0b1020" font-size="13" font-weight="700">H41</text><text x="36" y="506" fill="#0b1020" font-size="8.5" opacity="0.85">10727 Hz</text><text x="36" y="519" fill="#0b1020" font-size="8.5" opacity="0.85">oct 5 · 129°</text><text x="36" y="532" fill="#0b1020" font-size="8.5" opacity="0.7">+29¢</text></g>
<g><rect x="108" y="472" width="74" height="74" rx="9" fill="#34ea00"/><text x="116" y="491" fill="#0b1020" font-size="13" font-weight="700">H42</text><text x="116" y="506" fill="#0b1020" font-size="8.5" opacity="0.85">10988 Hz</text><text x="116" y="519" fill="#0b1020" font-size="8.5" opacity="0.85">oct 5 · 141°</text><text x="116" y="532" fill="#0b1020" font-size="8.5" opacity="0.7">-29¢</text></g>
<g><rect x="188" y="472" width="74" height="74" rx="9" fill="#00e880"/><text x="196" y="491" fill="#0b1020" font-size="13" font-weight="700">H43</text><text x="196" y="506" fill="#0b1020" font-size="8.5" opacity="0.85">11250 Hz</text><text x="196" y="519" fill="#0b1020" font-size="8.5" opacity="0.85">oct 5 · 153°</text><text x="196" y="532" fill="#0b1020" font-size="8.5" opacity="0.7">+12¢</text></g>
<g><rect x="268" y="472" width="74" height="74" rx="9" fill="#00e5a8"/><text x="276" y="491" fill="#0b1020" font-size="13" font-weight="700">H44</text><text x="276" y="506" fill="#0b1020" font-size="8.5" opacity="0.85">11512 Hz</text><text x="276" y="519" fill="#0b1020" font-size="8.5" opacity="0.85">oct 5 · 165°</text><text x="276" y="532" fill="#0b1020" font-size="8.5" opacity="0.7">-49¢</text></g>
<g><rect x="348" y="472" width="74" height="74" rx="9" fill="#00e2c1"/><text x="356" y="491" fill="#0b1020" font-size="13" font-weight="700">H45</text><text x="356" y="506" fill="#0b1020" font-size="8.5" opacity="0.85">11773 Hz</text><text x="356" y="519" fill="#0b1020" font-size="8.5" opacity="0.85">oct 5 · 177°</text><text x="356" y="532" fill="#0b1020" font-size="8.5" opacity="0.7">-10¢</text></g>
<g><rect x="428" y="472" width="74" height="74" rx="9" fill="#00e0d5"/><text x="436" y="491" fill="#0b1020" font-size="13" font-weight="700">H46</text><text x="436" y="506" fill="#0b1020" font-size="8.5" opacity="0.85">12035 Hz</text><text x="436" y="519" fill="#0b1020" font-size="8.5" opacity="0.85">oct 5 · 188°</text><text x="436" y="532" fill="#0b1020" font-size="8.5" opacity="0.7">+28¢</text></g>
<g><rect x="508" y="472" width="74" height="74" rx="9" fill="#00dde6"/><text x="516" y="491" fill="#0b1020" font-size="13" font-weight="700">H47</text><text x="516" y="506" fill="#0b1020" font-size="8.5" opacity="0.85">12296 Hz</text><text x="516" y="519" fill="#0b1020" font-size="8.5" opacity="0.85">oct 5 · 200°</text><text x="516" y="532" fill="#0b1020" font-size="8.5" opacity="0.7">-34¢</text></g>
<g><rect x="588" y="472" width="74" height="74" rx="9" fill="#00dbf6"/><text x="596" y="491" fill="#0b1020" font-size="13" font-weight="700">H48</text><text x="596" y="506" fill="#0b1020" font-size="8.5" opacity="0.85">12558 Hz</text><text x="596" y="519" fill="#0b1020" font-size="8.5" opacity="0.85">oct 5 · 211°</text><text x="596" y="532" fill="#0b1020" font-size="8.5" opacity="0.7">+2¢</text></g>
<g><rect x="28" y="552" width="74" height="74" rx="9" fill="#46d6ff"/><text x="36" y="571" fill="#0b1020" font-size="13" font-weight="700">H49</text><text x="36" y="586" fill="#0b1020" font-size="8.5" opacity="0.85">12820 Hz</text><text x="36" y="599" fill="#0b1020" font-size="8.5" opacity="0.85">oct 5 · 221°</text><text x="36" y="612" fill="#0b1020" font-size="8.5" opacity="0.7">+38¢</text></g>
<g><rect x="108" y="552" width="74" height="74" rx="9" fill="#70d0ff"/><text x="116" y="571" fill="#0b1020" font-size="13" font-weight="700">H50</text><text x="116" y="586" fill="#0b1020" font-size="8.5" opacity="0.85">13081 Hz</text><text x="116" y="599" fill="#0b1020" font-size="8.5" opacity="0.85">oct 5 · 232°</text><text x="116" y="612" fill="#0b1020" font-size="8.5" opacity="0.7">-27¢</text></g>
<g><rect x="188" y="552" width="74" height="74" rx="9" fill="#87cbff"/><text x="196" y="571" fill="#0b1020" font-size="13" font-weight="700">H51</text><text x="196" y="586" fill="#0b1020" font-size="8.5" opacity="0.85">13343 Hz</text><text x="196" y="599" fill="#0b1020" font-size="8.5" opacity="0.85">oct 5 · 242°</text><text x="196" y="612" fill="#0b1020" font-size="8.5" opacity="0.7">+7¢</text></g>
<g><rect x="268" y="552" width="74" height="74" rx="9" fill="#96c7ff"/><text x="276" y="571" fill="#0b1020" font-size="13" font-weight="700">H52</text><text x="276" y="586" fill="#0b1020" font-size="8.5" opacity="0.85">13605 Hz</text><text x="276" y="599" fill="#0b1020" font-size="8.5" opacity="0.85">oct 5 · 252°</text><text x="276" y="612" fill="#0b1020" font-size="8.5" opacity="0.7">+41¢</text></g>
<g><rect x="348" y="552" width="74" height="74" rx="9" fill="#a3c4ff"/><text x="356" y="571" fill="#0b1020" font-size="13" font-weight="700">H53</text><text x="356" y="586" fill="#0b1020" font-size="8.5" opacity="0.85">13866 Hz</text><text x="356" y="599" fill="#0b1020" font-size="8.5" opacity="0.85">oct 5 · 262°</text><text x="356" y="612" fill="#0b1020" font-size="8.5" opacity="0.7">-27¢</text></g>
<g><rect x="428" y="552" width="74" height="74" rx="9" fill="#aec0ff"/><text x="436" y="571" fill="#0b1020" font-size="13" font-weight="700">H54</text><text x="436" y="586" fill="#0b1020" font-size="8.5" opacity="0.85">14128 Hz</text><text x="436" y="599" fill="#0b1020" font-size="8.5" opacity="0.85">oct 5 · 272°</text><text x="436" y="612" fill="#0b1020" font-size="8.5" opacity="0.7">+6¢</text></g>
<g><rect x="508" y="552" width="74" height="74" rx="9" fill="#b8bcff"/><text x="516" y="571" fill="#0b1020" font-size="13" font-weight="700">H55</text><text x="516" y="586" fill="#0b1020" font-size="8.5" opacity="0.85">14389 Hz</text><text x="516" y="599" fill="#0b1020" font-size="8.5" opacity="0.85">oct 5 · 281°</text><text x="516" y="612" fill="#0b1020" font-size="8.5" opacity="0.7">+38¢</text></g>
<g><rect x="588" y="552" width="74" height="74" rx="9" fill="#c2b8ff"/><text x="596" y="571" fill="#0b1020" font-size="13" font-weight="700">H56</text><text x="596" y="586" fill="#0b1020" font-size="8.5" opacity="0.85">14651 Hz</text><text x="596" y="599" fill="#0b1020" font-size="8.5" opacity="0.85">oct 5 · 291°</text><text x="596" y="612" fill="#0b1020" font-size="8.5" opacity="0.7">-31¢</text></g>
<g><rect x="28" y="632" width="74" height="74" rx="9" fill="#cdb3ff"/><text x="36" y="651" fill="#0b1020" font-size="13" font-weight="700">H57</text><text x="36" y="666" fill="#0b1020" font-size="8.5" opacity="0.85">14913 Hz</text><text x="36" y="679" fill="#0b1020" font-size="8.5" opacity="0.85">oct 5 · 300°</text><text x="36" y="692" fill="#0b1020" font-size="8.5" opacity="0.7">-1¢</text></g>
<g><rect x="108" y="632" width="74" height="74" rx="9" fill="#daadff"/><text x="116" y="651" fill="#0b1020" font-size="13" font-weight="700">H58</text><text x="116" y="666" fill="#0b1020" font-size="8.5" opacity="0.85">15174 Hz</text><text x="116" y="679" fill="#0b1020" font-size="8.5" opacity="0.85">oct 5 · 309°</text><text x="116" y="692" fill="#0b1020" font-size="8.5" opacity="0.7">+30¢</text></g>
<g><rect x="188" y="632" width="74" height="74" rx="9" fill="#e9a5ff"/><text x="196" y="651" fill="#0b1020" font-size="13" font-weight="700">H59</text><text x="196" y="666" fill="#0b1020" font-size="8.5" opacity="0.85">15436 Hz</text><text x="196" y="679" fill="#0b1020" font-size="8.5" opacity="0.85">oct 5 · 318°</text><text x="196" y="692" fill="#0b1020" font-size="8.5" opacity="0.7">-41¢</text></g>
<g><rect x="268" y="632" width="74" height="74" rx="9" fill="#fd97ff"/><text x="276" y="651" fill="#0b1020" font-size="13" font-weight="700">H60</text><text x="276" y="666" fill="#0b1020" font-size="8.5" opacity="0.85">15698 Hz</text><text x="276" y="679" fill="#0b1020" font-size="8.5" opacity="0.85">oct 5 · 326°</text><text x="276" y="692" fill="#0b1020" font-size="8.5" opacity="0.7">-12¢</text></g>
<g><rect x="348" y="632" width="74" height="74" rx="9" fill="#ff9bea"/><text x="356" y="651" fill="#0b1020" font-size="13" font-weight="700">H61</text><text x="356" y="666" fill="#0b1020" font-size="8.5" opacity="0.85">15959 Hz</text><text x="356" y="679" fill="#0b1020" font-size="8.5" opacity="0.85">oct 5 · 335°</text><text x="356" y="692" fill="#0b1020" font-size="8.5" opacity="0.7">+17¢</text></g>
<g><rect x="428" y="632" width="74" height="74" rx="9" fill="#ff9fd9"/><text x="436" y="651" fill="#0b1020" font-size="13" font-weight="700">H62</text><text x="436" y="666" fill="#0b1020" font-size="8.5" opacity="0.85">16221 Hz</text><text x="436" y="679" fill="#0b1020" font-size="8.5" opacity="0.85">oct 5 · 344°</text><text x="436" y="692" fill="#0b1020" font-size="8.5" opacity="0.7">+45¢</text></g>
<g><rect x="508" y="632" width="74" height="74" rx="9" fill="#ffa2cb"/><text x="516" y="651" fill="#0b1020" font-size="13" font-weight="700">H63</text><text x="516" y="666" fill="#0b1020" font-size="8.5" opacity="0.85">16482 Hz</text><text x="516" y="679" fill="#0b1020" font-size="8.5" opacity="0.85">oct 5 · 352°</text><text x="516" y="692" fill="#0b1020" font-size="8.5" opacity="0.7">-27¢</text></g>
<g><rect x="588" y="632" width="74" height="74" rx="9" fill="#ffbbcf"/><text x="596" y="651" fill="#0b1020" font-size="13" font-weight="700">H64</text><text x="596" y="666" fill="#0b1020" font-size="8.5" opacity="0.85">16744 Hz</text><text x="596" y="679" fill="#0b1020" font-size="8.5" opacity="0.85">oct 6 · 0°</text><text x="596" y="692" fill="#0b1020" font-size="8.5" opacity="0.7">+0¢</text></g>
<text x="28" y="730" fill="#7fe3ff" font-size="11" font-weight="700" letter-spacing="1">CARRIERS SHARING A HUE — THE SAME NOTE, OCTAVES APART</text>
<rect x="28" y="741" width="12" height="12" rx="3" fill="#e7007a"/><text x="48" y="750" fill="#c8d6ea" font-size="10.5">  0° — H1, H2, H4, H8, H16, H32, H64</text>
<rect x="28" y="761" width="12" height="12" rx="3" fill="#ff937f"/><text x="48" y="770" fill="#c8d6ea" font-size="10.5"> 32° — H17, H34</text>
<rect x="28" y="781" width="12" height="12" rx="3" fill="#f28a00"/><text x="48" y="790" fill="#c8d6ea" font-size="10.5"> 61° — H9, H18, H36</text>
<rect x="28" y="801" width="12" height="12" rx="3" fill="#ddaf00"/><text x="48" y="810" fill="#c8d6ea" font-size="10.5"> 89° — H19, H38</text>
<rect x="28" y="821" width="12" height="12" rx="3" fill="#96a500"/><text x="48" y="830" fill="#c8d6ea" font-size="10.5">116° — H5, H10, H20, H40</text>
<rect x="28" y="841" width="12" height="12" rx="3" fill="#30da00"/><text x="48" y="850" fill="#c8d6ea" font-size="10.5">141° — H21, H42</text>
<rect x="28" y="861" width="12" height="12" rx="3" fill="#00c590"/><text x="48" y="870" fill="#c8d6ea" font-size="10.5">165° — H11, H22, H44</text>
<rect x="28" y="881" width="12" height="12" rx="3" fill="#00d0c6"/><text x="48" y="890" fill="#c8d6ea" font-size="10.5">189° — H23, H46</text>
<rect x="28" y="901" width="12" height="12" rx="3" fill="#009fb3"/><text x="48" y="910" fill="#c8d6ea" font-size="10.5">211° — H3, H6, H12, H24, H48</text>
<rect x="28" y="921" width="12" height="12" rx="3" fill="#3bc4ff"/><text x="48" y="930" fill="#c8d6ea" font-size="10.5">232° — H25, H50</text>
<rect x="28" y="941" width="12" height="12" rx="3" fill="#5facff"/><text x="48" y="950" fill="#c8d6ea" font-size="10.5">252° — H13, H26, H52</text>
<rect x="28" y="961" width="12" height="12" rx="3" fill="#9bb1ff"/><text x="48" y="970" fill="#c8d6ea" font-size="10.5">272° — H27, H54</text>
<rect x="28" y="981" width="12" height="12" rx="3" fill="#9c82ff"/><text x="48" y="990" fill="#c8d6ea" font-size="10.5">291° — H7, H14, H28, H56</text>
<rect x="28" y="1001" width="12" height="12" rx="3" fill="#d298ff"/><text x="48" y="1010" fill="#c8d6ea" font-size="10.5">309° — H29, H58</text>
<rect x="28" y="1021" width="12" height="12" rx="3" fill="#f952ff"/><text x="48" y="1030" fill="#c8d6ea" font-size="10.5">327° — H15, H30, H60</text>
<rect x="28" y="1041" width="12" height="12" rx="3" fill="#ff84d1"/><text x="48" y="1050" fill="#c8d6ea" font-size="10.5">344° — H31, H62</text>
</svg>
